<svg xmlns="http://www.w3.org/2000/svg" width="56" height="56" viewBox="0 0 56 56" fill="none">
  <rect x="0" y="0" width="56" height="56" rx="16" fill="#1E1B4B" fill-opacity="0.3" />
  <g transform="translate(14 14) scale(1.1666667)" stroke="#6366F1" stroke-opacity="0.7" stroke-width="2" stroke-linecap="round" stroke-linejoin="round">
    <path d="M12 7v14" />
    <path d="M3 18a1 1 0 0 1-1-1V4a1 1 0 0 1 1-1h5a4 4 0 0 1 4 4 4 4 0 0 1 4-4h5a1 1 0 0 1 1 1v13a1 1 0 0 1-1 1h-6a3 3 0 0 0-3 3 3 3 0 0 0-3-3z" />
  </g>
</svg>
